<?xml version="1.0" encoding="utf-8"?>
<!-- Svg Vector Icons : http://www.onlinewebfonts.com/icon -->
<!DOCTYPE svg PUBLIC "-//W3C//DTD SVG 1.1//EN" "http://www.w3.org/Graphics/SVG/1.1/DTD/svg11.dtd">
<svg version="1.1" xmlns="http://www.w3.org/2000/svg" xmlns:xlink="http://www.w3.org/1999/xlink" x="0px" y="0px" viewBox="0 0 1000 1000" enable-background="new 0 0 1000 1000" xml:space="preserve">
<metadata> Svg Vector Icons : http://www.onlinewebfonts.com/icon </metadata>
<g><g><path d="M915.5,341.6c-74.4-13.3-144.8-48.4-200.8-104.4c-56-56-91.1-126.4-104.4-200.8c75.3-47.2,184.5-30.5,260.1,45.1C945.9,157.1,962.6,266.3,915.5,341.6z M863.5,393.6c-71.4-20-138.4-57-193.3-111.9c-54.9-55-92-121.9-111.8-193.3c-47.1,75.3-30.4,184.4,45.1,260C679.1,423.9,788.1,440.6,863.5,393.6z M564.4,728.3c-93.9,0-161.1,58.7-220.4,110.5c-65.5,57.2-122.2,106.9-205.7,81.1c-16.5-12.2-17-22.1-17.2-25.5c-1.2-22.6,26.2-52.9,39.7-64.1c1.7-1.4,2.6-3.2,3.9-4.8c22,7.7,47.4,3.2,65-14.4L657.5,459c-35.4-15-69.1-36.8-98.5-66.2c-29.4-29.4-51.1-63.2-66.1-98.5L140.9,722.1c-15.7,15.7-20.2,37.3-15.9,57.5c-1.3,0.8-2.8,1.2-4,2.2c-6.7,5.5-65.5,55.5-62.6,115.7c1,21.1,10.3,51.7,48.4,77.2l7.5,3.7c24.5,8.2,47.3,11.7,68.7,11.7c83.7,0,146.1-54.5,202.5-103.9c55.9-48.8,108.6-95,179-95c162.1,0,287.6,173.7,288.9,175.4c10,14.3,29.7,17.5,43.8,7.4c14.2-10,17.5-29.6,7.5-43.8C898.8,922,759.3,728.3,564.4,728.3z"/></g><g></g><g></g><g></g><g></g><g></g><g></g><g></g><g></g><g></g><g></g><g></g><g></g><g></g><g></g><g></g></g>
</svg>